<svg width="66.02744140625px" height="126.25009765624999px" xmlns="http://www.w3.org/2000/svg" viewBox="216.986279296875 11.874951171875004 66.02744140625 126.25009765624999" style="background-image: none; background-position: initial initial; background-repeat: initial initial;" preserveAspectRatio="xMidYMid"><defs><linearGradient id="editing-sticker-gradient" x1="0.5" y1="0.2" x2="0.5" y2="0.8"><stop offset="0" stop-color="#5a0b0b"></stop><stop offset="1" stop-color="#290e0e"></stop></linearGradient><filter id="editing-sticker" x="-100%" y="-100%" width="300%" height="300%"><feMorphology operator="erode" radius="1" in="SourceAlpha" result="alpha-erode"></feMorphology><feConvolveMatrix order="3,3" divisor="1" kernelMatrix="0 1 0 1 1 1 0 1 0" in="alpha-erode" result="alpha-round"></feConvolveMatrix><feMorphology operator="dilate" radius="3.5" in="alpha-round" result="dilate-shadow"></feMorphology><feGaussianBlur in="dilate-shadow" stdDeviation="1.5" result="shadow"></feGaussianBlur><feFlood flood-color="#fff" result="flood-sticker"></feFlood><feComposite operator="in" in="flood-sticker" in2="alpha-round" result="comp-sticker"></feComposite><feMorphology operator="dilate" radius="3" in="comp-sticker" result="morph-sticker"></feMorphology><feConvolveMatrix order="3,3" divisor="1" kernelMatrix="0 1 0 1 1 1 0 1 0" in="morph-sticker" result="sticker"></feConvolveMatrix><feMerge><feMergeNode in="shadow"></feMergeNode><feMergeNode in="sticker"></feMergeNode><feMergeNode in="SourceGraphic"></feMergeNode></feMerge></filter></defs><g filter="url(#editing-sticker)"><g transform="translate(231.82500076293945, 97.51062393188477)"><path d="M29.70-44.80L29.70-44.80L30.40-44.80L30.40-44.80Q30.98-44.80 31.36-44.42L31.36-44.42L31.36-44.42Q31.94-43.78 31.49-42.94L31.49-42.94L20.29-22.85L32.32-1.86L32.32-1.86Q32.51-1.47 32.51-1.15L32.51-1.15L32.51-1.15Q32.51 0 31.23 0L31.23 0L30.53 0L30.53 0Q29.82 0 29.57-0.38L29.57-0.38L18.56-19.65L8.83-1.73L8.83-1.73Q7.68 0.19 6.27 0.19L6.27 0.19L6.27 0.19Q3.84 0.19 3.84-2.37L3.84-2.37L3.84-43.52L3.84-43.52Q3.84-44.03 4.19-44.42L4.19-44.42L4.19-44.42Q4.54-44.80 5.12-44.80L5.12-44.80L5.76-44.80L5.76-44.80Q6.34-44.80 6.69-44.42L6.69-44.42L6.69-44.42Q7.04-44.03 7.04-43.52L7.04-43.52L7.04-5.12L19.71-28.29L28.80-44.42L28.80-44.42Q29.06-44.80 29.70-44.80Z" fill="url(#editing-sticker-gradient)" stroke="#000000" stroke-width="2.5"></path></g></g><style>text {
  font-size: 64px;
  font-family: Arial Black;
  dominant-baseline: central;
  text-anchor: middle;
}</style></svg>